<svg xmlns="http://www.w3.org/2000/svg" xmlns:xlink="http://www.w3.org/1999/xlink" width="1920" zoomAndPan="magnify" viewBox="0 0 1440 420" height="1080" preserveAspectRatio="none" version="1.0"><defs><g/><clipPath id="797d5c500a"><path d="M 991.652344 29.21875 L 1343.402344 29.21875 L 1343.402344 380.96875 L 991.652344 380.96875 Z M 991.652344 29.21875 " clip-rule="nonzero"/></clipPath><clipPath id="4d4e817cdc"><rect x="0" width="900" y="0" height="110"/></clipPath></defs><rect x="-144" width="1728" fill="#121212" y="-80.999999" height="971.999992" fill-opacity="1"/><rect x="-144" width="1728" fill="#ffffff" y="-80.999999" height="971.999992" fill-opacity="1"/><g clip-path="url(#797d5c500a)"><path fill="#121212" d="M 1043.160156 80.726562 C 1011.339844 112.542969 991.652344 156.496094 991.652344 205.023438 C 991.652344 222.53125 994.195312 239.457031 998.992188 255.441406 C 1003.929688 271.929688 1011.195312 287.40625 1020.496094 301.570312 C 1021.800781 303.53125 1024.417969 304.039062 1026.378906 302.804688 C 1028.339844 301.5 1028.847656 298.882812 1027.613281 296.921875 C 1018.75 283.480469 1011.847656 268.734375 1007.128906 252.96875 C 1002.625 237.789062 1000.152344 221.660156 1000.152344 205.023438 C 1000.152344 158.820312 1018.894531 116.976562 1049.191406 86.753906 C 1079.484375 56.460938 1121.328125 37.71875 1167.457031 37.71875 C 1169.636719 37.71875 1171.453125 37.71875 1173.050781 37.792969 C 1174.796875 37.863281 1176.683594 37.9375 1178.644531 38.082031 C 1180.972656 38.226562 1183.003906 36.484375 1183.148438 34.085938 C 1183.296875 31.761719 1181.550781 29.726562 1179.15625 29.582031 C 1177.339844 29.4375 1175.378906 29.363281 1173.269531 29.292969 C 1171.089844 29.292969 1169.128906 29.21875 1167.457031 29.21875 C 1118.929688 29.21875 1074.980469 48.90625 1043.160156 80.726562 Z M 1224.195312 35.539062 C 1248.3125 65.976562 1285.363281 103.027344 1315.804688 127.148438 C 1318.199219 119.953125 1319.507812 112.253906 1319.507812 104.261719 C 1319.507812 82.90625 1310.0625 62.710938 1293.789062 48.90625 C 1280.570312 37.792969 1264.078125 31.835938 1247.078125 31.835938 C 1239.453125 31.835938 1231.679688 33.070312 1224.195312 35.539062 Z M 1188.527344 61.691406 C 1194.554688 53.410156 1202.328125 46.4375 1211.265625 41.351562 C 1223.976562 57.625 1239.816406 75.496094 1257.832031 93.511719 C 1275.847656 111.527344 1293.71875 127.363281 1309.992188 140.078125 C 1304.90625 149.011719 1297.933594 156.785156 1289.648438 162.816406 C 1272.722656 149.523438 1254.488281 133.320312 1236.253906 115.085938 C 1218.019531 96.851562 1201.820312 78.546875 1188.527344 61.691406 Z M 1119.367188 88.863281 L 1124.089844 73.535156 L 1128.808594 88.863281 L 1144.140625 93.582031 L 1128.808594 98.304688 L 1124.089844 113.632812 L 1119.367188 98.304688 L 1104.039062 93.582031 Z M 1174.652344 104.261719 C 1174.652344 93.65625 1176.902344 83.558594 1181.042969 74.476562 C 1195.355469 92.277344 1211.046875 109.277344 1226.519531 124.75 C 1242.066406 140.296875 1259.066406 155.988281 1276.792969 170.226562 C 1267.710938 174.292969 1257.613281 176.617188 1247.007812 176.617188 C 1207.050781 176.691406 1174.652344 144.292969 1174.652344 104.261719 Z M 1057.472656 261.179688 L 1163.316406 128.453125 C 1171.597656 157.222656 1194.191406 179.816406 1222.886719 188.023438 L 1090.164062 293.871094 C 1081.953125 300.410156 1071.203125 302.296875 1062.628906 297.71875 C 1062.121094 297.355469 1061.683594 296.992188 1061.25 296.703125 C 1057.035156 304.550781 1055.875 312.757812 1057.472656 320.460938 C 1058.5625 325.835938 1060.957031 330.921875 1064.664062 335.425781 C 1068.003906 339.566406 1071.128906 341.890625 1075.414062 344.722656 C 1088.054688 353.078125 1101.859375 359.761719 1116.605469 364.410156 C 1132.589844 369.496094 1149.734375 372.257812 1167.457031 372.257812 C 1213.660156 372.257812 1255.507812 353.511719 1285.726562 323.21875 C 1316.019531 292.925781 1334.761719 251.082031 1334.761719 204.949219 C 1334.761719 196.089844 1334.109375 187.371094 1332.800781 179.015625 C 1331.496094 170.371094 1329.460938 162.015625 1326.84375 153.808594 C 1326.117188 151.554688 1327.355469 149.230469 1329.605469 148.503906 C 1331.859375 147.777344 1334.183594 149.011719 1334.910156 151.265625 C 1337.667969 159.835938 1339.777344 168.628906 1341.15625 177.78125 C 1342.535156 186.714844 1343.261719 195.796875 1343.261719 205.023438 C 1343.261719 253.550781 1323.574219 297.503906 1291.757812 329.320312 C 1259.9375 361.140625 1215.988281 380.828125 1167.457031 380.828125 C 1148.859375 380.828125 1130.917969 377.921875 1113.992188 372.546875 C 1098.589844 367.605469 1084.058594 360.632812 1070.839844 351.988281 C 1065.316406 348.355469 1061.976562 345.957031 1057.617188 340.292969 C 1053.332031 334.84375 1050.496094 328.667969 1049.117188 322.203125 C 1047.082031 312.324219 1048.679688 301.789062 1054.128906 291.980469 L 1054.855469 290.746094 C 1054.492188 290.238281 1054.203125 289.800781 1053.984375 289.367188 C 1048.972656 280.722656 1050.789062 269.605469 1057.472656 261.179688 Z M 1060.59375 151.046875 L 1067.277344 129.253906 L 1073.960938 151.046875 L 1095.757812 157.730469 L 1073.960938 164.414062 L 1067.277344 186.207031 L 1060.59375 164.414062 L 1038.800781 157.730469 Z M 1261.390625 228.851562 L 1246.0625 233.574219 L 1261.390625 238.296875 L 1266.113281 253.625 L 1270.835938 238.296875 L 1286.164062 233.574219 L 1270.835938 228.851562 L 1266.113281 213.523438 Z M 1200.292969 283.480469 L 1209.957031 252.097656 L 1219.617188 283.480469 L 1251.003906 293.144531 L 1219.617188 302.804688 L 1209.957031 334.1875 L 1200.292969 302.804688 L 1168.910156 293.070312 Z M 1200.292969 283.480469 " fill-opacity="1" fill-rule="evenodd"/></g><g transform="translate(485.2, 314.1) scale(1.12) translate(-485.2, -314.1)"><g fill="#121212" fill-opacity="1"><g transform="translate(222.721827, 314.052016)"><g><path d="M 12.40625 -16.703125 C 11.46875 -16.703125 10.773438 -16.367188 10.328125 -15.703125 C 9.878906 -15.046875 9.65625 -14.242188 9.65625 -13.296875 C 9.65625 -11.503906 9.976562 -9.96875 10.625 -8.6875 C 11.28125 -7.414062 12.335938 -6.78125 13.796875 -6.78125 C 15.296875 -6.78125 16.445312 -7.175781 17.25 -7.96875 C 18.0625 -8.757812 18.46875 -9.796875 18.46875 -11.078125 C 18.46875 -13.035156 17.984375 -14.488281 17.015625 -15.4375 C 16.472656 -15.945312 15.867188 -16.285156 15.203125 -16.453125 C 14.546875 -16.617188 13.613281 -16.703125 12.40625 -16.703125 Z M 4.75 -23.484375 C 5.820312 -23.484375 7.257812 -23.367188 9.0625 -23.140625 C 10.863281 -22.910156 12.351562 -22.796875 13.53125 -22.796875 C 14.039062 -22.796875 14.757812 -22.8125 15.6875 -22.84375 C 16.625 -22.882812 17.335938 -22.898438 17.828125 -22.890625 C 18.328125 -22.878906 18.921875 -22.828125 19.609375 -22.734375 C 20.304688 -22.648438 20.925781 -22.457031 21.46875 -22.15625 C 22.019531 -21.863281 22.550781 -21.460938 23.0625 -20.953125 C 23.695312 -20.316406 24.164062 -19.554688 24.46875 -18.671875 C 24.78125 -17.796875 24.957031 -17.007812 25 -16.3125 C 25.039062 -15.625 25.0625 -14.566406 25.0625 -13.140625 C 25.0625 -12.804688 25.0625 -12.5625 25.0625 -12.40625 C 25.0625 -9.007812 24.894531 -5.78125 24.5625 -2.71875 C 24.457031 -1.820312 24.117188 -1.066406 23.546875 -0.453125 C 22.972656 0.148438 22.265625 0.453125 21.421875 0.453125 C 20.578125 0.453125 19.488281 0.375 18.15625 0.21875 C 16.832031 0.0703125 15.75 0 14.90625 0 C 13.90625 0 12.632812 0.0976562 11.09375 0.296875 C 9.550781 0.503906 8.289062 0.609375 7.3125 0.609375 C 6.09375 0.609375 5.085938 0.164062 4.296875 -0.71875 C 3.503906 -1.613281 3.109375 -2.691406 3.109375 -3.953125 C 3.109375 -4.640625 3.1875 -5.546875 3.34375 -6.671875 C 3.507812 -7.796875 3.617188 -8.632812 3.671875 -9.1875 C 3.953125 -12.539062 3.625 -14.867188 2.6875 -16.171875 C 2.65625 -16.222656 2.5625 -16.34375 2.40625 -16.53125 C 2.257812 -16.71875 2.171875 -16.835938 2.140625 -16.890625 C 2.117188 -16.941406 2.039062 -17.050781 1.90625 -17.21875 C 1.78125 -17.382812 1.703125 -17.503906 1.671875 -17.578125 C 1.648438 -17.660156 1.59375 -17.785156 1.5 -17.953125 C 1.414062 -18.117188 1.359375 -18.257812 1.328125 -18.375 C 1.304688 -18.488281 1.273438 -18.628906 1.234375 -18.796875 C 1.203125 -18.960938 1.179688 -19.128906 1.171875 -19.296875 C 1.160156 -19.460938 1.15625 -19.632812 1.15625 -19.8125 C 1.15625 -20.601562 1.515625 -21.410156 2.234375 -22.234375 C 2.960938 -23.066406 3.800781 -23.484375 4.75 -23.484375 Z M 4.75 -23.484375 "/></g></g></g><g fill="#121212" fill-opacity="1"><g transform="translate(256.012391, 314.052016)"><g><path d="M 5.984375 -11.5 C 8.554688 -11.5 9.84375 -9.609375 9.84375 -5.828125 C 9.84375 -4.703125 9.726562 -3.675781 9.5 -2.75 C 9.269531 -1.832031 8.816406 -1.03125 8.140625 -0.34375 C 7.460938 0.34375 6.585938 0.6875 5.515625 0.6875 C 4.703125 0.6875 4.023438 0.519531 3.484375 0.1875 C 2.953125 -0.144531 2.570312 -0.628906 2.34375 -1.265625 C 2.113281 -1.898438 1.957031 -2.503906 1.875 -3.078125 C 1.800781 -3.660156 1.765625 -4.359375 1.765625 -5.171875 C 1.765625 -7.085938 2.160156 -8.617188 2.953125 -9.765625 C 3.742188 -10.921875 4.753906 -11.5 5.984375 -11.5 Z M 5.515625 -23.59375 C 6.378906 -23.59375 7.492188 -23.488281 8.859375 -23.28125 C 10.234375 -23.082031 11.414062 -22.984375 12.40625 -22.984375 L 15.828125 -22.984375 C 17.023438 -22.984375 18.085938 -22.816406 19.015625 -22.484375 C 19.953125 -22.148438 20.726562 -21.734375 21.34375 -21.234375 C 21.957031 -20.742188 22.476562 -20.070312 22.90625 -19.21875 C 23.34375 -18.363281 23.675781 -17.5625 23.90625 -16.8125 C 24.132812 -16.070312 24.304688 -15.140625 24.421875 -14.015625 C 24.535156 -12.898438 24.601562 -11.96875 24.625 -11.21875 C 24.65625 -10.476562 24.671875 -9.546875 24.671875 -8.421875 C 24.671875 -7.203125 24.628906 -6.15625 24.546875 -5.28125 C 24.472656 -4.414062 24.316406 -3.457031 24.078125 -2.40625 C 23.835938 -1.363281 23.410156 -0.5625 22.796875 0 C 22.179688 0.5625 21.414062 0.84375 20.5 0.84375 C 19.164062 0.84375 18.179688 0.359375 17.546875 -0.609375 C 16.910156 -1.578125 16.59375 -2.765625 16.59375 -4.171875 C 16.59375 -4.941406 16.625 -5.957031 16.6875 -7.21875 C 16.75 -8.488281 16.78125 -9.519531 16.78125 -10.3125 C 16.78125 -14.039062 15.066406 -15.90625 11.640625 -15.90625 C 11.109375 -15.90625 10.394531 -15.863281 9.5 -15.78125 C 8.601562 -15.707031 7.863281 -15.671875 7.28125 -15.671875 C 5.488281 -15.671875 4.019531 -16.015625 2.875 -16.703125 C 1.726562 -17.390625 1.15625 -18.410156 1.15625 -19.765625 C 1.15625 -20.867188 1.539062 -21.78125 2.3125 -22.5 C 3.09375 -23.226562 4.160156 -23.59375 5.515625 -23.59375 Z M 5.515625 -23.59375 "/></g></g></g><g fill="#121212" fill-opacity="1"><g transform="translate(288.881561, 314.052016)"><g><path d="M 5.140625 -23.453125 C 6.765625 -23.453125 7.976562 -22.914062 8.78125 -21.84375 C 9.414062 -20.96875 9.734375 -19.5625 9.734375 -17.625 C 9.734375 -15.40625 9.539062 -13.601562 9.15625 -12.21875 C 8.625 -10.300781 7.410156 -9.34375 5.515625 -9.34375 C 3.828125 -9.34375 2.664062 -10.0625 2.03125 -11.5 C 1.445312 -12.800781 1.15625 -14.597656 1.15625 -16.890625 C 1.15625 -18.503906 1.28125 -19.804688 1.53125 -20.796875 C 1.988281 -22.566406 3.191406 -23.453125 5.140625 -23.453125 Z M 5.140625 -23.453125 "/></g></g></g><g fill="#121212" fill-opacity="1"><g transform="translate(306.848704, 314.052016)"><g><path d="M 1.15625 -22.140625 C 1.15625 -23.929688 1.410156 -25.925781 1.921875 -28.125 C 2.273438 -29.625 2.769531 -30.65625 3.40625 -31.21875 C 4.050781 -31.78125 4.957031 -32.078125 6.125 -32.109375 C 7.070312 -32.128906 7.898438 -31.84375 8.609375 -31.25 C 9.328125 -30.664062 9.6875 -29.929688 9.6875 -29.046875 C 9.6875 -28.429688 9.59375 -27.707031 9.40625 -26.875 C 9.21875 -26.039062 9.125 -25.304688 9.125 -24.671875 C 9.125 -24.035156 9.363281 -23.503906 9.84375 -23.078125 C 10.332031 -22.660156 10.929688 -22.453125 11.640625 -22.453125 C 12.304688 -22.453125 13.460938 -22.664062 15.109375 -23.09375 C 16.753906 -23.53125 17.972656 -23.75 18.765625 -23.75 C 20.890625 -23.75 22.441406 -22.984375 23.421875 -21.453125 C 24.410156 -19.921875 24.90625 -18.054688 24.90625 -15.859375 C 24.90625 -12.304688 23.972656 -8.945312 22.109375 -5.78125 C 19.578125 -1.519531 16.984375 0.609375 14.328125 0.609375 C 13.078125 0.609375 12.0625 0.269531 11.28125 -0.40625 C 10.5 -1.082031 10.109375 -1.96875 10.109375 -3.0625 C 10.109375 -5.03125 11.488281 -7.050781 14.25 -9.125 C 15.070312 -9.726562 15.632812 -10.15625 15.9375 -10.40625 C 16.238281 -10.664062 16.566406 -11.085938 16.921875 -11.671875 C 17.285156 -12.265625 17.46875 -12.894531 17.46875 -13.5625 C 17.46875 -14.375 17.171875 -15.023438 16.578125 -15.515625 C 15.992188 -16.003906 15.164062 -16.25 14.09375 -16.25 C 12.738281 -16.25 11.296875 -16.066406 9.765625 -15.703125 C 8.234375 -15.347656 6.972656 -15.171875 5.984375 -15.171875 C 4.347656 -15.171875 3.132812 -15.804688 2.34375 -17.078125 C 1.550781 -18.359375 1.15625 -20.046875 1.15625 -22.140625 Z M 1.15625 -22.140625 "/></g></g></g><g fill="#121212" fill-opacity="1"><g transform="translate(339.986031, 314.052016)"><g><path d="M 6.4375 -23.640625 C 8.9375 -23.640625 10.597656 -21.757812 11.421875 -18 C 11.773438 -16.289062 11.953125 -14.070312 11.953125 -11.34375 C 11.953125 -10.5 12.175781 -9.726562 12.625 -9.03125 C 13.070312 -8.34375 13.691406 -8 14.484375 -8 C 15.273438 -8 15.9375 -8.335938 16.46875 -9.015625 C 17.007812 -9.691406 17.398438 -10.601562 17.640625 -11.75 C 17.878906 -12.90625 18.046875 -14.046875 18.140625 -15.171875 C 18.234375 -16.296875 18.265625 -17.492188 18.234375 -18.765625 C 18.210938 -20.117188 18.546875 -21.28125 19.234375 -22.25 C 19.921875 -23.226562 20.878906 -23.71875 22.109375 -23.71875 C 24.921875 -23.71875 26.328125 -21.597656 26.328125 -17.359375 C 26.328125 -11.640625 24.859375 -7.1875 21.921875 -4 C 18.984375 -0.820312 15.046875 0.765625 10.109375 0.765625 C 4.140625 0.765625 1.15625 -0.5625 1.15625 -3.21875 C 1.15625 -3.78125 1.242188 -4.269531 1.421875 -4.6875 C 1.597656 -5.113281 1.835938 -5.441406 2.140625 -5.671875 C 2.453125 -5.898438 2.78125 -6.085938 3.125 -6.234375 C 3.46875 -6.390625 3.804688 -6.535156 4.140625 -6.671875 C 4.265625 -6.691406 4.351562 -6.71875 4.40625 -6.75 C 5.632812 -7.175781 6.132812 -8.039062 5.90625 -9.34375 C 5.800781 -9.957031 5.453125 -10.832031 4.859375 -11.96875 C 4.273438 -13.101562 3.726562 -14.316406 3.21875 -15.609375 C 2.707031 -16.898438 2.453125 -18.144531 2.453125 -19.34375 C 2.453125 -20.5 2.800781 -21.503906 3.5 -22.359375 C 4.207031 -23.210938 5.1875 -23.640625 6.4375 -23.640625 Z M 6.4375 -23.640625 "/></g></g></g><g fill="#121212" fill-opacity="1"><g transform="translate(374.540778, 314.052016)"><g/></g></g><g fill="#121212" fill-opacity="1"><g transform="translate(398.867139, 314.052016)"><g><path d="M 5.75 -23.5625 C 7.96875 -23.5625 9.472656 -22.382812 10.265625 -20.03125 C 10.804688 -18.445312 11.078125 -15.957031 11.078125 -12.5625 C 11.078125 -9.144531 10.804688 -6.234375 10.265625 -3.828125 C 9.679688 -0.992188 8.390625 0.421875 6.390625 0.421875 C 5.046875 0.421875 4.113281 0.0234375 3.59375 -0.765625 C 3.082031 -1.554688 2.78125 -2.578125 2.6875 -3.828125 C 2.601562 -4.617188 2.582031 -5.753906 2.625 -7.234375 C 2.664062 -8.722656 2.671875 -9.847656 2.640625 -10.609375 C 2.566406 -12.085938 2.300781 -13.59375 1.84375 -15.125 C 1.382812 -16.664062 1.15625 -17.84375 1.15625 -18.65625 C 1.15625 -19.957031 1.554688 -21.097656 2.359375 -22.078125 C 3.160156 -23.066406 4.289062 -23.5625 5.75 -23.5625 Z M 5.75 -23.5625 "/></g></g></g><g fill="#121212" fill-opacity="1"><g transform="translate(418.175095, 314.052016)"><g><path d="M 5.484375 -19.6875 C 5.484375 -20.8125 5.863281 -21.753906 6.625 -22.515625 C 7.394531 -23.285156 8.34375 -23.671875 9.46875 -23.671875 C 15.4375 -23.671875 18.421875 -19.625 18.421875 -11.53125 C 18.421875 -9.15625 18.242188 -6.675781 17.890625 -4.09375 C 17.484375 -1.238281 16.234375 0.1875 14.140625 0.1875 C 13.015625 0.1875 11.554688 0.253906 9.765625 0.390625 C 7.984375 0.535156 6.671875 0.609375 5.828125 0.609375 C 4.523438 0.609375 3.421875 0.222656 2.515625 -0.546875 C 1.609375 -1.328125 1.15625 -2.382812 1.15625 -3.71875 C 1.15625 -4.914062 1.566406 -5.878906 2.390625 -6.609375 C 3.222656 -7.335938 4.125 -7.703125 5.09375 -7.703125 C 5.632812 -7.703125 6.320312 -7.617188 7.15625 -7.453125 C 8 -7.285156 8.71875 -7.203125 9.3125 -7.203125 C 9.925781 -7.203125 10.4375 -7.429688 10.84375 -7.890625 C 11.25 -8.347656 11.476562 -8.921875 11.53125 -9.609375 C 11.6875 -11.015625 11.601562 -12.085938 11.28125 -12.828125 C 10.957031 -13.578125 10.390625 -14.226562 9.578125 -14.78125 C 9.472656 -14.863281 9.054688 -15.128906 8.328125 -15.578125 C 7.597656 -16.023438 7.097656 -16.363281 6.828125 -16.59375 C 6.566406 -16.820312 6.273438 -17.222656 5.953125 -17.796875 C 5.640625 -18.367188 5.484375 -19 5.484375 -19.6875 Z M 5.484375 -19.6875 "/></g></g></g><g fill="#121212" fill-opacity="1"><g transform="translate(444.838271, 314.052016)"><g><path d="M 1.15625 -22.140625 C 1.15625 -23.929688 1.410156 -25.925781 1.921875 -28.125 C 2.273438 -29.625 2.769531 -30.65625 3.40625 -31.21875 C 4.050781 -31.78125 4.957031 -32.078125 6.125 -32.109375 C 7.070312 -32.128906 7.898438 -31.84375 8.609375 -31.25 C 9.328125 -30.664062 9.6875 -29.929688 9.6875 -29.046875 C 9.6875 -28.429688 9.59375 -27.707031 9.40625 -26.875 C 9.21875 -26.039062 9.125 -25.304688 9.125 -24.671875 C 9.125 -24.035156 9.363281 -23.503906 9.84375 -23.078125 C 10.332031 -22.660156 10.929688 -22.453125 11.640625 -22.453125 C 12.304688 -22.453125 13.460938 -22.664062 15.109375 -23.09375 C 16.753906 -23.53125 17.972656 -23.75 18.765625 -23.75 C 20.890625 -23.75 22.441406 -22.984375 23.421875 -21.453125 C 24.410156 -19.921875 24.90625 -18.054688 24.90625 -15.859375 C 24.90625 -12.304688 23.972656 -8.945312 22.109375 -5.78125 C 19.578125 -1.519531 16.984375 0.609375 14.328125 0.609375 C 13.078125 0.609375 12.0625 0.269531 11.28125 -0.40625 C 10.5 -1.082031 10.109375 -1.96875 10.109375 -3.0625 C 10.109375 -5.03125 11.488281 -7.050781 14.25 -9.125 C 15.070312 -9.726562 15.632812 -10.15625 15.9375 -10.40625 C 16.238281 -10.664062 16.566406 -11.085938 16.921875 -11.671875 C 17.285156 -12.265625 17.46875 -12.894531 17.46875 -13.5625 C 17.46875 -14.375 17.171875 -15.023438 16.578125 -15.515625 C 15.992188 -16.003906 15.164062 -16.25 14.09375 -16.25 C 12.738281 -16.25 11.296875 -16.066406 9.765625 -15.703125 C 8.234375 -15.347656 6.972656 -15.171875 5.984375 -15.171875 C 4.347656 -15.171875 3.132812 -15.804688 2.34375 -17.078125 C 1.550781 -18.359375 1.15625 -20.046875 1.15625 -22.140625 Z M 1.15625 -22.140625 "/></g></g></g><g fill="#121212" fill-opacity="1"><g transform="translate(477.975598, 314.052016)"><g><path d="M 1.15625 -19.609375 C 1.175781 -20.867188 1.640625 -21.898438 2.546875 -22.703125 C 3.453125 -23.503906 4.582031 -23.90625 5.9375 -23.90625 C 6.78125 -23.90625 7.929688 -23.75 9.390625 -23.4375 C 10.847656 -23.132812 12.0625 -22.984375 13.03125 -22.984375 C 14.019531 -22.984375 15.289062 -23.132812 16.84375 -23.4375 C 18.40625 -23.75 19.703125 -23.90625 20.734375 -23.90625 C 21.953125 -23.90625 22.921875 -23.5625 23.640625 -22.875 C 24.359375 -22.1875 24.71875 -21.34375 24.71875 -20.34375 C 24.71875 -19.5 24.507812 -18.800781 24.09375 -18.25 C 23.6875 -17.707031 23.035156 -17.113281 22.140625 -16.46875 C 21.328125 -15.882812 20.796875 -15.210938 20.546875 -14.453125 C 20.304688 -13.703125 20.1875 -12.664062 20.1875 -11.34375 C 20.1875 -10.46875 20.253906 -9.378906 20.390625 -8.078125 C 20.535156 -6.773438 20.609375 -5.578125 20.609375 -4.484375 C 20.609375 -3.148438 20.25 -1.992188 19.53125 -1.015625 C 18.820312 -0.0351562 17.851562 0.453125 16.625 0.453125 C 15.195312 0.453125 14.132812 -0.0703125 13.4375 -1.125 C 12.75 -2.1875 12.40625 -3.40625 12.40625 -4.78125 C 12.40625 -6.09375 12.660156 -7.640625 13.171875 -9.421875 C 13.691406 -11.210938 13.953125 -12.601562 13.953125 -13.59375 C 13.953125 -14.414062 13.671875 -15.082031 13.109375 -15.59375 C 12.546875 -16.101562 11.800781 -16.359375 10.875 -16.359375 C 10.289062 -16.359375 9.5 -16.25 8.5 -16.03125 C 7.507812 -15.8125 6.398438 -15.703125 5.171875 -15.703125 C 4.097656 -15.703125 3.148438 -16.082031 2.328125 -16.84375 C 1.515625 -17.613281 1.125 -18.535156 1.15625 -19.609375 Z M 1.15625 -19.609375 "/></g></g></g><g fill="#121212" fill-opacity="1"><g transform="translate(510.883082, 314.052016)"><g><path d="M 9 -23.828125 C 12.164062 -23.828125 14.609375 -23.070312 16.328125 -21.5625 C 17.316406 -20.675781 17.953125 -19.726562 18.234375 -18.71875 C 18.515625 -17.707031 18.671875 -16.421875 18.703125 -14.859375 C 18.722656 -12.128906 19.117188 -9.539062 19.890625 -7.09375 C 19.929688 -6.90625 20.035156 -6.566406 20.203125 -6.078125 C 20.367188 -5.597656 20.472656 -5.257812 20.515625 -5.0625 C 20.554688 -4.875 20.613281 -4.601562 20.6875 -4.25 C 20.757812 -3.894531 20.789062 -3.550781 20.78125 -3.21875 C 20.769531 -2.882812 20.738281 -2.515625 20.6875 -2.109375 C 20.5625 -1.210938 20.132812 -0.507812 19.40625 0 C 18.675781 0.507812 17.828125 0.765625 16.859375 0.765625 C 15.910156 0.765625 15.078125 0.394531 14.359375 -0.34375 C 13.648438 -1.082031 13.164062 -2.066406 12.90625 -3.296875 C 12.832031 -3.734375 12.632812 -3.972656 12.3125 -4.015625 C 12 -4.066406 11.738281 -3.890625 11.53125 -3.484375 C 10.863281 -2.210938 9.929688 -1.1875 8.734375 -0.40625 C 7.535156 0.375 6.257812 0.765625 4.90625 0.765625 C 3.65625 0.765625 2.71875 0.382812 2.09375 -0.375 C 1.46875 -1.144531 1.15625 -2.117188 1.15625 -3.296875 C 1.15625 -4.898438 1.992188 -6.175781 3.671875 -7.125 C 4.179688 -7.425781 4.710938 -7.671875 5.265625 -7.859375 C 5.816406 -8.054688 6.515625 -8.257812 7.359375 -8.46875 C 8.203125 -8.675781 8.851562 -8.851562 9.3125 -9 C 11.300781 -9.613281 12.296875 -11.03125 12.296875 -13.25 C 12.296875 -14.175781 11.988281 -14.9375 11.375 -15.53125 C 10.757812 -16.132812 10.007812 -16.4375 9.125 -16.4375 C 8.476562 -16.4375 7.742188 -16.335938 6.921875 -16.140625 C 6.109375 -15.953125 5.410156 -15.859375 4.828125 -15.859375 C 3.910156 -15.859375 3.160156 -16.195312 2.578125 -16.875 C 2.003906 -17.550781 1.71875 -18.363281 1.71875 -19.3125 C 1.71875 -20.632812 2.476562 -21.71875 4 -22.5625 C 5.519531 -23.40625 7.1875 -23.828125 9 -23.828125 Z M 9 -23.828125 "/></g></g></g><g fill="#121212" fill-opacity="1"><g transform="translate(539.883073, 314.052016)"><g><path d="M 5.28125 -23.671875 C 6.382812 -23.671875 7.28125 -23.304688 7.96875 -22.578125 C 8.65625 -21.859375 9.015625 -20.859375 9.046875 -19.578125 C 9.046875 -19.171875 9.03125 -18.628906 9 -17.953125 C 8.976562 -17.273438 8.96875 -16.734375 8.96875 -16.328125 C 9.070312 -14.765625 9.582031 -13.984375 10.5 -13.984375 C 11.46875 -13.984375 11.976562 -14.925781 12.03125 -16.8125 C 12.082031 -17.789062 12.15625 -18.601562 12.25 -19.25 C 12.351562 -19.90625 12.539062 -20.613281 12.8125 -21.375 C 13.082031 -22.144531 13.507812 -22.726562 14.09375 -23.125 C 14.6875 -23.519531 15.429688 -23.71875 16.328125 -23.71875 C 17.679688 -23.71875 18.757812 -23.347656 19.5625 -22.609375 C 20.363281 -21.867188 20.765625 -20.9375 20.765625 -19.8125 C 20.765625 -18.300781 20.519531 -16.835938 20.03125 -15.421875 C 19.550781 -14.003906 18.96875 -12.925781 18.28125 -12.1875 C 17.382812 -11.1875 16.257812 -10.351562 14.90625 -9.6875 C 13.957031 -9.257812 13.484375 -8.632812 13.484375 -7.8125 C 13.484375 -6.789062 14.082031 -6.21875 15.28125 -6.09375 C 16.507812 -5.96875 17.628906 -6.203125 18.640625 -6.796875 C 19.648438 -7.398438 20.445312 -8.210938 21.03125 -9.234375 C 21.625 -10.253906 22.070312 -11.34375 22.375 -12.5 C 22.675781 -13.664062 22.828125 -14.800781 22.828125 -15.90625 C 22.828125 -17.96875 23.269531 -19.785156 24.15625 -21.359375 C 25.039062 -22.929688 26.335938 -23.71875 28.046875 -23.71875 C 29.367188 -23.71875 30.375 -23.222656 31.0625 -22.234375 C 31.757812 -21.253906 32.109375 -19.867188 32.109375 -18.078125 C 32.109375 -15.753906 31.75 -13.429688 31.03125 -11.109375 C 30.3125 -8.785156 29.265625 -6.726562 27.890625 -4.9375 C 26.253906 -2.820312 24.5 -1.328125 22.625 -0.453125 C 20.75 0.410156 18.671875 0.84375 16.390625 0.84375 C 10.929688 0.84375 6.925781 -1.1875 4.375 -5.25 C 2.226562 -8.695312 1.15625 -12.925781 1.15625 -17.9375 C 1.15625 -19.925781 1.53125 -21.378906 2.28125 -22.296875 C 3.03125 -23.210938 4.03125 -23.671875 5.28125 -23.671875 Z M 5.28125 -23.671875 "/></g></g></g><g fill="#121212" fill-opacity="1"><g transform="translate(580.222418, 314.052016)"><g/></g></g><g fill="#121212" fill-opacity="1"><g transform="translate(604.548757, 314.052016)"><g><path d="M 12.40625 -16.703125 C 11.46875 -16.703125 10.773438 -16.367188 10.328125 -15.703125 C 9.878906 -15.046875 9.65625 -14.242188 9.65625 -13.296875 C 9.65625 -11.503906 9.976562 -9.96875 10.625 -8.6875 C 11.28125 -7.414062 12.335938 -6.78125 13.796875 -6.78125 C 15.296875 -6.78125 16.445312 -7.175781 17.25 -7.96875 C 18.0625 -8.757812 18.46875 -9.796875 18.46875 -11.078125 C 18.46875 -13.035156 17.984375 -14.488281 17.015625 -15.4375 C 16.472656 -15.945312 15.867188 -16.285156 15.203125 -16.453125 C 14.546875 -16.617188 13.613281 -16.703125 12.40625 -16.703125 Z M 4.75 -23.484375 C 5.820312 -23.484375 7.257812 -23.367188 9.0625 -23.140625 C 10.863281 -22.910156 12.351562 -22.796875 13.53125 -22.796875 C 14.039062 -22.796875 14.757812 -22.8125 15.6875 -22.84375 C 16.625 -22.882812 17.335938 -22.898438 17.828125 -22.890625 C 18.328125 -22.878906 18.921875 -22.828125 19.609375 -22.734375 C 20.304688 -22.648438 20.925781 -22.457031 21.46875 -22.15625 C 22.019531 -21.863281 22.550781 -21.460938 23.0625 -20.953125 C 23.695312 -20.316406 24.164062 -19.554688 24.46875 -18.671875 C 24.78125 -17.796875 24.957031 -17.007812 25 -16.3125 C 25.039062 -15.625 25.0625 -14.566406 25.0625 -13.140625 C 25.0625 -12.804688 25.0625 -12.5625 25.0625 -12.40625 C 25.0625 -9.007812 24.894531 -5.78125 24.5625 -2.71875 C 24.457031 -1.820312 24.117188 -1.066406 23.546875 -0.453125 C 22.972656 0.148438 22.265625 0.453125 21.421875 0.453125 C 20.578125 0.453125 19.488281 0.375 18.15625 0.21875 C 16.832031 0.0703125 15.75 0 14.90625 0 C 13.90625 0 12.632812 0.0976562 11.09375 0.296875 C 9.550781 0.503906 8.289062 0.609375 7.3125 0.609375 C 6.09375 0.609375 5.085938 0.164062 4.296875 -0.71875 C 3.503906 -1.613281 3.109375 -2.691406 3.109375 -3.953125 C 3.109375 -4.640625 3.1875 -5.546875 3.34375 -6.671875 C 3.507812 -7.796875 3.617188 -8.632812 3.671875 -9.1875 C 3.953125 -12.539062 3.625 -14.867188 2.6875 -16.171875 C 2.65625 -16.222656 2.5625 -16.34375 2.40625 -16.53125 C 2.257812 -16.71875 2.171875 -16.835938 2.140625 -16.890625 C 2.117188 -16.941406 2.039062 -17.050781 1.90625 -17.21875 C 1.78125 -17.382812 1.703125 -17.503906 1.671875 -17.578125 C 1.648438 -17.660156 1.59375 -17.785156 1.5 -17.953125 C 1.414062 -18.117188 1.359375 -18.257812 1.328125 -18.375 C 1.304688 -18.488281 1.273438 -18.628906 1.234375 -18.796875 C 1.203125 -18.960938 1.179688 -19.128906 1.171875 -19.296875 C 1.160156 -19.460938 1.15625 -19.632812 1.15625 -19.8125 C 1.15625 -20.601562 1.515625 -21.410156 2.234375 -22.234375 C 2.960938 -23.066406 3.800781 -23.484375 4.75 -23.484375 Z M 4.75 -23.484375 "/></g></g></g><g fill="#121212" fill-opacity="1"><g transform="translate(637.839344, 314.052016)"><g><path d="M 5.140625 -23.453125 C 6.765625 -23.453125 7.976562 -22.914062 8.78125 -21.84375 C 9.414062 -20.96875 9.734375 -19.5625 9.734375 -17.625 C 9.734375 -15.40625 9.539062 -13.601562 9.15625 -12.21875 C 8.625 -10.300781 7.410156 -9.34375 5.515625 -9.34375 C 3.828125 -9.34375 2.664062 -10.0625 2.03125 -11.5 C 1.445312 -12.800781 1.15625 -14.597656 1.15625 -16.890625 C 1.15625 -18.503906 1.28125 -19.804688 1.53125 -20.796875 C 1.988281 -22.566406 3.191406 -23.453125 5.140625 -23.453125 Z M 5.140625 -23.453125 "/></g></g></g><g fill="#121212" fill-opacity="1"><g transform="translate(655.806475, 314.052016)"><g><path d="M 12.71875 -23.640625 C 14.707031 -23.640625 16.441406 -23.425781 17.921875 -23 C 19.410156 -22.582031 20.613281 -22.015625 21.53125 -21.296875 C 22.445312 -20.585938 23.1875 -19.679688 23.75 -18.578125 C 24.3125 -17.484375 24.703125 -16.347656 24.921875 -15.171875 C 25.140625 -13.992188 25.25 -12.648438 25.25 -11.140625 C 25.25 -9.640625 25.203125 -8.328125 25.109375 -7.203125 C 25.023438 -6.078125 24.832031 -4.875 24.53125 -3.59375 C 24.238281 -2.320312 23.757812 -1.332031 23.09375 -0.625 C 22.4375 0.0703125 21.597656 0.421875 20.578125 0.421875 C 19.296875 0.421875 18.3125 -0.0078125 17.625 -0.875 C 16.9375 -1.75 16.59375 -2.953125 16.59375 -4.484375 C 16.59375 -5.429688 16.738281 -6.503906 17.03125 -7.703125 C 17.320312 -8.898438 17.46875 -9.929688 17.46875 -10.796875 C 17.46875 -12.484375 16.984375 -13.75 16.015625 -14.59375 C 15.046875 -15.4375 13.726562 -15.859375 12.0625 -15.859375 C 11.125 -15.859375 9.976562 -15.570312 8.625 -15 C 7.269531 -14.425781 6.15625 -14.140625 5.28125 -14.140625 C 4.15625 -14.140625 3.1875 -14.503906 2.375 -15.234375 C 1.5625 -15.960938 1.15625 -16.863281 1.15625 -17.9375 C 1.15625 -19.5625 1.90625 -20.910156 3.40625 -21.984375 C 4.351562 -22.648438 5.566406 -23.09375 7.046875 -23.3125 C 8.523438 -23.53125 10.414062 -23.640625 12.71875 -23.640625 Z M 12.71875 -23.640625 "/></g></g></g><g fill="#121212" fill-opacity="1"><g transform="translate(689.28859, 314.052016)"><g><path d="M 5.140625 -23.453125 C 6.765625 -23.453125 7.976562 -22.914062 8.78125 -21.84375 C 9.414062 -20.96875 9.734375 -19.5625 9.734375 -17.625 C 9.734375 -15.40625 9.539062 -13.601562 9.15625 -12.21875 C 8.625 -10.300781 7.410156 -9.34375 5.515625 -9.34375 C 3.828125 -9.34375 2.664062 -10.0625 2.03125 -11.5 C 1.445312 -12.800781 1.15625 -14.597656 1.15625 -16.890625 C 1.15625 -18.503906 1.28125 -19.804688 1.53125 -20.796875 C 1.988281 -22.566406 3.191406 -23.453125 5.140625 -23.453125 Z M 5.140625 -23.453125 "/></g></g></g><g fill="#121212" fill-opacity="1"><g transform="translate(707.255722, 314.052016)"><g><path d="M 5.28125 -23.671875 C 6.382812 -23.671875 7.28125 -23.304688 7.96875 -22.578125 C 8.65625 -21.859375 9.015625 -20.859375 9.046875 -19.578125 C 9.046875 -19.171875 9.03125 -18.628906 9 -17.953125 C 8.976562 -17.273438 8.96875 -16.734375 8.96875 -16.328125 C 9.070312 -14.765625 9.582031 -13.984375 10.5 -13.984375 C 11.46875 -13.984375 11.976562 -14.925781 12.03125 -16.8125 C 12.082031 -17.789062 12.15625 -18.601562 12.25 -19.25 C 12.351562 -19.90625 12.539062 -20.613281 12.8125 -21.375 C 13.082031 -22.144531 13.507812 -22.726562 14.09375 -23.125 C 14.6875 -23.519531 15.429688 -23.71875 16.328125 -23.71875 C 17.679688 -23.71875 18.757812 -23.347656 19.5625 -22.609375 C 20.363281 -21.867188 20.765625 -20.9375 20.765625 -19.8125 C 20.765625 -18.300781 20.519531 -16.835938 20.03125 -15.421875 C 19.550781 -14.003906 18.96875 -12.925781 18.28125 -12.1875 C 17.382812 -11.1875 16.257812 -10.351562 14.90625 -9.6875 C 13.957031 -9.257812 13.484375 -8.632812 13.484375 -7.8125 C 13.484375 -6.789062 14.082031 -6.21875 15.28125 -6.09375 C 16.507812 -5.96875 17.628906 -6.203125 18.640625 -6.796875 C 19.648438 -7.398438 20.445312 -8.210938 21.03125 -9.234375 C 21.625 -10.253906 22.070312 -11.34375 22.375 -12.5 C 22.675781 -13.664062 22.828125 -14.800781 22.828125 -15.90625 C 22.828125 -17.96875 23.269531 -19.785156 24.15625 -21.359375 C 25.039062 -22.929688 26.335938 -23.71875 28.046875 -23.71875 C 29.367188 -23.71875 30.375 -23.222656 31.0625 -22.234375 C 31.757812 -21.253906 32.109375 -19.867188 32.109375 -18.078125 C 32.109375 -15.753906 31.75 -13.429688 31.03125 -11.109375 C 30.3125 -8.785156 29.265625 -6.726562 27.890625 -4.9375 C 26.253906 -2.820312 24.5 -1.328125 22.625 -0.453125 C 20.75 0.410156 18.671875 0.84375 16.390625 0.84375 C 10.929688 0.84375 6.925781 -1.1875 4.375 -5.25 C 2.226562 -8.695312 1.15625 -12.925781 1.15625 -17.9375 C 1.15625 -19.925781 1.53125 -21.378906 2.28125 -22.296875 C 3.03125 -23.210938 4.03125 -23.671875 5.28125 -23.671875 Z M 5.28125 -23.671875 "/></g></g></g><g fill="#121212" fill-opacity="1"><g transform="translate(747.595045, 314.052016)"><g><path d="M 5.984375 -11.5 C 8.554688 -11.5 9.84375 -9.609375 9.84375 -5.828125 C 9.84375 -4.703125 9.726562 -3.675781 9.5 -2.75 C 9.269531 -1.832031 8.816406 -1.03125 8.140625 -0.34375 C 7.460938 0.34375 6.585938 0.6875 5.515625 0.6875 C 4.703125 0.6875 4.023438 0.519531 3.484375 0.1875 C 2.953125 -0.144531 2.570312 -0.628906 2.34375 -1.265625 C 2.113281 -1.898438 1.957031 -2.503906 1.875 -3.078125 C 1.800781 -3.660156 1.765625 -4.359375 1.765625 -5.171875 C 1.765625 -7.085938 2.160156 -8.617188 2.953125 -9.765625 C 3.742188 -10.921875 4.753906 -11.5 5.984375 -11.5 Z M 5.515625 -23.59375 C 6.378906 -23.59375 7.492188 -23.488281 8.859375 -23.28125 C 10.234375 -23.082031 11.414062 -22.984375 12.40625 -22.984375 L 15.828125 -22.984375 C 17.023438 -22.984375 18.085938 -22.816406 19.015625 -22.484375 C 19.953125 -22.148438 20.726562 -21.734375 21.34375 -21.234375 C 21.957031 -20.742188 22.476562 -20.070312 22.90625 -19.21875 C 23.34375 -18.363281 23.675781 -17.5625 23.90625 -16.8125 C 24.132812 -16.070312 24.304688 -15.140625 24.421875 -14.015625 C 24.535156 -12.898438 24.601562 -11.96875 24.625 -11.21875 C 24.65625 -10.476562 24.671875 -9.546875 24.671875 -8.421875 C 24.671875 -7.203125 24.628906 -6.15625 24.546875 -5.28125 C 24.472656 -4.414062 24.316406 -3.457031 24.078125 -2.40625 C 23.835938 -1.363281 23.410156 -0.5625 22.796875 0 C 22.179688 0.5625 21.414062 0.84375 20.5 0.84375 C 19.164062 0.84375 18.179688 0.359375 17.546875 -0.609375 C 16.910156 -1.578125 16.59375 -2.765625 16.59375 -4.171875 C 16.59375 -4.941406 16.625 -5.957031 16.6875 -7.21875 C 16.75 -8.488281 16.78125 -9.519531 16.78125 -10.3125 C 16.78125 -14.039062 15.066406 -15.90625 11.640625 -15.90625 C 11.109375 -15.90625 10.394531 -15.863281 9.5 -15.78125 C 8.601562 -15.707031 7.863281 -15.671875 7.28125 -15.671875 C 5.488281 -15.671875 4.019531 -16.015625 2.875 -16.703125 C 1.726562 -17.390625 1.15625 -18.410156 1.15625 -19.765625 C 1.15625 -20.867188 1.539062 -21.78125 2.3125 -22.5 C 3.09375 -23.226562 4.160156 -23.59375 5.515625 -23.59375 Z M 5.515625 -23.59375 "/></g></g></g></g><g transform="matrix(1, 0, 0, 1, 57, 131)"><g clip-path="url(#4d4e817cdc)"><g fill="#121212" fill-opacity="1"><g transform="translate(0.882271, 78.836968)"><g><path d="M 10.8125 -46.921875 C 10.8125 -50.441406 12.019531 -53.25 14.4375 -55.34375 C 16.851562 -57.445312 20.441406 -58.5 25.203125 -58.5 C 26.585938 -58.5 29.285156 -58.148438 33.296875 -57.453125 C 37.304688 -56.765625 41.066406 -56.421875 44.578125 -56.421875 C 47.398438 -56.421875 49.65625 -56.359375 51.34375 -56.234375 C 53.039062 -56.109375 54.984375 -55.734375 57.171875 -55.109375 C 59.367188 -54.484375 61.125 -53.585938 62.4375 -52.421875 C 63.757812 -51.265625 65 -49.570312 66.15625 -47.34375 C 67.320312 -45.125 68.15625 -42.414062 68.65625 -39.21875 C 68.96875 -37.332031 69.15625 -35.507812 69.21875 -33.75 C 69.28125 -32 69.328125 -30.054688 69.359375 -27.921875 C 69.390625 -25.796875 69.4375 -23.953125 69.5 -22.390625 C 69.5625 -21.316406 69.65625 -20.039062 69.78125 -18.5625 C 69.90625 -17.09375 70.015625 -15.75 70.109375 -14.53125 C 70.203125 -13.3125 70.25 -12.039062 70.25 -10.71875 C 70.25 -7.332031 69.304688 -4.460938 67.421875 -2.109375 C 65.546875 0.234375 62.757812 1.40625 59.0625 1.40625 C 55.550781 1.40625 52.976562 0.375 51.34375 -1.6875 C 49.71875 -3.757812 48.90625 -6.519531 48.90625 -9.96875 C 48.90625 -12.539062 49.203125 -15.832031 49.796875 -19.84375 C 50.390625 -23.851562 50.6875 -27.113281 50.6875 -29.625 C 50.6875 -32.695312 50.039062 -35.34375 48.75 -37.5625 C 47.46875 -39.789062 45.484375 -40.90625 42.796875 -40.90625 C 39.347656 -40.90625 36.898438 -39.742188 35.453125 -37.421875 C 34.015625 -35.109375 33.296875 -32.257812 33.296875 -28.875 C 33.296875 -27.175781 33.375 -25.039062 33.53125 -22.46875 C 33.6875 -19.90625 33.765625 -17.898438 33.765625 -16.453125 C 33.765625 -12.003906 32.164062 -7.945312 28.96875 -4.28125 C 25.769531 -0.613281 21.535156 1.21875 16.265625 1.21875 C 11.753906 1.21875 8.554688 0.59375 6.671875 -0.65625 C 4.109375 -2.351562 2.828125 -4.738281 2.828125 -7.8125 C 2.828125 -10.5625 3.546875 -12.71875 4.984375 -14.28125 C 6.421875 -15.851562 8.175781 -16.859375 10.25 -17.296875 C 13.257812 -17.929688 15.40625 -18.96875 16.6875 -20.40625 C 17.976562 -21.851562 18.625 -23.796875 18.625 -26.234375 C 18.625 -30.179688 17.210938 -33.976562 14.390625 -37.625 C 12.003906 -40.757812 10.8125 -43.859375 10.8125 -46.921875 Z M 10.8125 -46.921875 "/></g></g></g><g fill="#121212" fill-opacity="1"><g transform="translate(91.360048, 78.836968)"><g><path d="M 12.609375 -57.5625 C 16.617188 -57.5625 19.59375 -56.242188 21.53125 -53.609375 C 23.101562 -51.472656 23.890625 -48.023438 23.890625 -43.265625 C 23.890625 -37.804688 23.421875 -33.382812 22.484375 -30 C 21.160156 -25.300781 18.179688 -22.953125 13.546875 -22.953125 C 9.398438 -22.953125 6.546875 -24.707031 4.984375 -28.21875 C 3.546875 -31.414062 2.828125 -35.832031 2.828125 -41.46875 C 2.828125 -45.425781 3.140625 -48.625 3.765625 -51.0625 C 4.890625 -55.394531 7.835938 -57.5625 12.609375 -57.5625 Z M 12.609375 -57.5625 "/></g></g></g><g fill="#121212" fill-opacity="1"><g transform="translate(135.470932, 78.836968)"><g><path d="M 16.171875 -57.84375 C 17.929688 -57.84375 20.332031 -57.601562 23.375 -57.125 C 26.414062 -56.65625 30.035156 -56.421875 34.234375 -56.421875 C 37.992188 -56.421875 40.84375 -56.375 42.78125 -56.28125 C 44.726562 -56.1875 46.988281 -55.84375 49.5625 -55.25 C 52.132812 -54.65625 54.234375 -53.734375 55.859375 -52.484375 C 57.117188 -51.535156 58.1875 -50.484375 59.0625 -49.328125 C 59.9375 -48.171875 60.640625 -46.789062 61.171875 -45.1875 C 61.710938 -43.59375 62.140625 -42.179688 62.453125 -40.953125 C 62.765625 -39.734375 62.984375 -38.023438 63.109375 -35.828125 C 63.234375 -33.640625 63.3125 -31.945312 63.34375 -30.75 C 63.375 -29.5625 63.390625 -27.679688 63.390625 -25.109375 C 63.390625 -7.117188 59.5 1.875 51.71875 1.875 C 48.144531 1.875 45.71875 0.796875 44.4375 -1.359375 C 43.15625 -3.523438 42.515625 -7.242188 42.515625 -12.515625 C 42.515625 -13.265625 42.640625 -14.875 42.890625 -17.34375 C 43.140625 -19.820312 43.21875 -22.160156 43.125 -24.359375 C 43.03125 -26.554688 42.632812 -28.6875 41.9375 -30.75 C 40.25 -35.644531 37.085938 -38.09375 32.453125 -38.09375 C 29.566406 -38.09375 27.242188 -37.226562 25.484375 -35.5 C 23.734375 -33.78125 22.859375 -31.320312 22.859375 -28.125 C 22.859375 -25.738281 23.359375 -22.726562 24.359375 -19.09375 C 25.359375 -15.457031 25.859375 -12.695312 25.859375 -10.8125 C 25.859375 -7.113281 25.023438 -4.117188 23.359375 -1.828125 C 21.703125 0.453125 19.398438 1.59375 16.453125 1.59375 C 12.566406 1.59375 9.632812 0.453125 7.65625 -1.828125 C 5.6875 -4.117188 4.703125 -7.207031 4.703125 -11.09375 C 4.703125 -13.601562 4.921875 -16.566406 5.359375 -19.984375 C 5.796875 -23.398438 6.015625 -26.082031 6.015625 -28.03125 C 6.015625 -30.28125 5.484375 -32.972656 4.421875 -36.109375 C 3.359375 -39.117188 2.828125 -42.316406 2.828125 -45.703125 C 2.828125 -49.273438 4 -52.191406 6.34375 -54.453125 C 8.695312 -56.710938 11.972656 -57.84375 16.171875 -57.84375 Z M 16.171875 -57.84375 "/></g></g></g><g fill="#121212" fill-opacity="1"><g transform="translate(219.083026, 78.836968)"><g><path d="M 31.21875 -58.03125 C 36.113281 -58.03125 40.378906 -57.507812 44.015625 -56.46875 C 47.648438 -55.4375 50.59375 -54.039062 52.84375 -52.28125 C 55.101562 -50.53125 56.921875 -48.304688 58.296875 -45.609375 C 59.679688 -42.910156 60.640625 -40.117188 61.171875 -37.234375 C 61.710938 -34.359375 61.984375 -31.066406 61.984375 -27.359375 C 61.984375 -23.660156 61.867188 -20.429688 61.640625 -17.671875 C 61.421875 -14.921875 60.953125 -11.976562 60.234375 -8.84375 C 59.515625 -5.707031 58.335938 -3.273438 56.703125 -1.546875 C 55.078125 0.171875 53.007812 1.03125 50.5 1.03125 C 47.363281 1.03125 44.945312 -0.03125 43.25 -2.15625 C 41.5625 -4.289062 40.71875 -7.238281 40.71875 -11 C 40.71875 -13.320312 41.078125 -15.957031 41.796875 -18.90625 C 42.523438 -21.851562 42.890625 -24.390625 42.890625 -26.515625 C 42.890625 -30.660156 41.695312 -33.765625 39.3125 -35.828125 C 36.925781 -37.898438 33.695312 -38.9375 29.625 -38.9375 C 27.300781 -38.9375 24.476562 -38.226562 21.15625 -36.8125 C 17.832031 -35.40625 15.109375 -34.703125 12.984375 -34.703125 C 10.222656 -34.703125 7.835938 -35.59375 5.828125 -37.375 C 3.828125 -39.164062 2.828125 -41.378906 2.828125 -44.015625 C 2.828125 -48.023438 4.675781 -51.347656 8.375 -53.984375 C 10.6875 -55.609375 13.660156 -56.6875 17.296875 -57.21875 C 20.941406 -57.757812 25.582031 -58.03125 31.21875 -58.03125 Z M 31.21875 -58.03125 "/></g></g></g><g fill="#121212" fill-opacity="1"><g transform="translate(301.284383, 78.836968)"><g><path d="M 13.546875 -57.1875 C 15.171875 -57.1875 17.316406 -56.851562 19.984375 -56.1875 C 22.648438 -55.53125 24.828125 -55.203125 26.515625 -55.203125 C 27.898438 -55.203125 29.65625 -55.40625 31.78125 -55.8125 C 33.914062 -56.21875 35.738281 -56.421875 37.25 -56.421875 C 40.25 -56.421875 42.832031 -55.617188 45 -54.015625 C 47.164062 -52.421875 48.25 -50.21875 48.25 -47.40625 C 48.25 -43.632812 46.617188 -40.5 43.359375 -38 C 41.472656 -36.550781 40.109375 -35.039062 39.265625 -33.46875 C 38.421875 -31.90625 37.84375 -29.84375 37.53125 -27.28125 C 37.28125 -25.269531 37.15625 -22.710938 37.15625 -19.609375 C 37.15625 -16.503906 37.085938 -14.328125 36.953125 -13.078125 C 36.203125 -3.359375 32.976562 1.5 27.28125 1.5 C 24.144531 1.5 21.585938 0.4375 19.609375 -1.6875 C 17.628906 -3.820312 16.640625 -7.082031 16.640625 -11.46875 C 16.640625 -15.425781 17.09375 -19.519531 18 -23.75 C 18.914062 -27.976562 19.375 -30.625 19.375 -31.6875 C 19.375 -34.570312 17.929688 -36.015625 15.046875 -36.015625 C 11.160156 -36.015625 8.148438 -36.953125 6.015625 -38.828125 C 3.890625 -40.710938 2.828125 -43.222656 2.828125 -46.359375 C 2.828125 -49.804688 3.71875 -52.472656 5.5 -54.359375 C 7.289062 -56.242188 9.972656 -57.1875 13.546875 -57.1875 Z M 13.546875 -57.1875 "/></g></g></g><g fill="#121212" fill-opacity="1"><g transform="translate(369.754312, 78.836968)"><g><path d="M 12.03125 -58.03125 C 14.414062 -58.03125 16.988281 -57.242188 19.75 -55.671875 C 22.507812 -54.109375 24.703125 -53.328125 26.328125 -53.328125 C 28.335938 -53.328125 30.546875 -54.140625 32.953125 -55.765625 C 35.367188 -57.398438 38.113281 -58.21875 41.1875 -58.21875 C 45.894531 -58.21875 49.957031 -56.804688 53.375 -53.984375 C 56.789062 -51.160156 59.28125 -47.710938 60.84375 -43.640625 C 62.414062 -39.566406 63.203125 -35.269531 63.203125 -30.75 C 63.203125 -19.84375 61.253906 -11.675781 57.359375 -6.25 C 53.472656 -0.832031 47.894531 1.875 40.625 1.875 C 36.800781 1.875 33.789062 1.109375 31.59375 -0.421875 C 29.40625 -1.960938 28.3125 -4.140625 28.3125 -6.953125 C 28.3125 -9.960938 29.125 -12.234375 30.75 -13.765625 C 32.382812 -15.304688 35.175781 -16.519531 39.125 -17.40625 C 41.632812 -18.03125 43.5625 -19.171875 44.90625 -20.828125 C 46.25 -22.492188 46.921875 -25.082031 46.921875 -28.59375 C 46.921875 -31.476562 45.976562 -34 44.09375 -36.15625 C 42.21875 -38.320312 39.90625 -39.40625 37.15625 -39.40625 C 31.007812 -39.40625 26.960938 -33.828125 25.015625 -22.671875 C 24.953125 -22.097656 24.734375 -20.554688 24.359375 -18.046875 C 23.984375 -15.546875 23.6875 -13.742188 23.46875 -12.640625 C 23.25 -11.546875 22.851562 -10.117188 22.28125 -8.359375 C 21.71875 -6.609375 21.09375 -5.171875 20.40625 -4.046875 C 18.144531 -0.285156 15.101562 1.59375 11.28125 1.59375 C 8.457031 1.59375 6.34375 0.421875 4.9375 -1.921875 C 3.53125 -4.273438 2.828125 -7.300781 2.828125 -11 C 2.828125 -14.320312 3.765625 -18.191406 5.640625 -22.609375 C 7.523438 -27.035156 8.40625 -30.597656 8.28125 -33.296875 C 8.21875 -35.109375 7.351562 -37.582031 5.6875 -40.71875 C 4.03125 -43.851562 3.203125 -46.457031 3.203125 -48.53125 C 3.203125 -51.164062 4 -53.40625 5.59375 -55.25 C 7.195312 -57.101562 9.34375 -58.03125 12.03125 -58.03125 Z M 12.03125 -58.03125 "/></g></g></g><g fill="#121212" fill-opacity="1"><g transform="translate(453.084278, 78.836968)"><g/></g></g><g fill="#121212" fill-opacity="1"><g transform="translate(512.807541, 78.836968)"><g><path d="M 12.609375 -57.5625 C 16.617188 -57.5625 19.59375 -56.242188 21.53125 -53.609375 C 23.101562 -51.472656 23.890625 -48.023438 23.890625 -43.265625 C 23.890625 -37.804688 23.421875 -33.382812 22.484375 -30 C 21.160156 -25.300781 18.179688 -22.953125 13.546875 -22.953125 C 9.398438 -22.953125 6.546875 -24.707031 4.984375 -28.21875 C 3.546875 -31.414062 2.828125 -35.832031 2.828125 -41.46875 C 2.828125 -45.425781 3.140625 -48.625 3.765625 -51.0625 C 4.890625 -55.394531 7.835938 -57.5625 12.609375 -57.5625 Z M 12.609375 -57.5625 "/></g></g></g><g fill="#121212" fill-opacity="1"><g transform="translate(556.918425, 78.836968)"><g><path d="M 14.578125 -27.46875 C 17.648438 -27.53125 19.90625 -26.710938 21.34375 -25.015625 C 22.789062 -23.328125 23.515625 -20.882812 23.515625 -17.6875 C 23.515625 -16.738281 23.4375 -15.414062 23.28125 -13.71875 C 23.125 -12.03125 23.046875 -10.65625 23.046875 -9.59375 C 23.046875 -5.207031 24.015625 0.367188 25.953125 7.140625 C 27.148438 11.347656 27.75 15.019531 27.75 18.15625 C 27.75 21.976562 26.664062 24.8125 24.5 26.65625 C 22.332031 28.507812 19.554688 29.4375 16.171875 29.4375 C 13.671875 29.4375 11.617188 28.835938 10.015625 27.640625 C 8.421875 26.453125 7.242188 24.664062 6.484375 22.28125 C 5.734375 19.90625 5.234375 17.507812 4.984375 15.09375 C 4.734375 12.675781 4.609375 9.679688 4.609375 6.109375 C 4.609375 -2.160156 5.015625 -9.523438 5.828125 -15.984375 C 6.203125 -19.117188 7.109375 -21.800781 8.546875 -24.03125 C 9.992188 -26.257812 12.003906 -27.40625 14.578125 -27.46875 Z M 2.828125 -43.921875 C 2.828125 -48.867188 5.019531 -52.628906 9.40625 -55.203125 C 13.476562 -57.648438 19.9375 -58.875 28.78125 -58.875 C 34.101562 -58.875 38.613281 -58.492188 42.3125 -57.734375 C 46.019531 -56.984375 49.566406 -55.515625 52.953125 -53.328125 C 60.160156 -48.617188 63.765625 -41.375 63.765625 -31.59375 C 63.765625 -29.03125 63.5 -26.367188 62.96875 -23.609375 C 62.4375 -20.847656 61.585938 -18.117188 60.421875 -15.421875 C 59.265625 -12.722656 57.835938 -10.304688 56.140625 -8.171875 C 54.453125 -6.046875 52.367188 -4.320312 49.890625 -3 C 47.410156 -1.6875 44.695312 -1.03125 41.75 -1.03125 C 38.8125 -1.03125 36.507812 -1.828125 34.84375 -3.421875 C 33.1875 -5.023438 32.359375 -7.175781 32.359375 -9.875 C 32.359375 -12.945312 33.859375 -15.613281 36.859375 -17.875 C 39.554688 -19.875 41.59375 -21.78125 42.96875 -23.59375 C 44.351562 -25.414062 45.046875 -27.613281 45.046875 -30.1875 C 45.046875 -33.257812 44.007812 -35.640625 41.9375 -37.328125 C 39.875 -39.023438 37.054688 -39.875 33.484375 -39.875 C 30.847656 -39.875 27.570312 -38.976562 23.65625 -37.1875 C 19.738281 -35.40625 16.554688 -34.515625 14.109375 -34.515625 C 10.785156 -34.515625 8.070312 -35.34375 5.96875 -37 C 3.875 -38.664062 2.828125 -40.972656 2.828125 -43.921875 Z M 2.828125 -43.921875 "/></g></g></g><g fill="#121212" fill-opacity="1"><g transform="translate(640.906706, 78.836968)"><g><path d="M 14.109375 -57.84375 C 19.566406 -57.84375 23.265625 -54.957031 25.203125 -49.1875 C 26.515625 -45.300781 27.171875 -39.1875 27.171875 -30.84375 C 27.171875 -22.445312 26.515625 -15.300781 25.203125 -9.40625 C 23.765625 -2.445312 20.597656 1.03125 15.703125 1.03125 C 12.378906 1.03125 10.085938 0.0625 8.828125 -1.875 C 7.578125 -3.820312 6.828125 -6.332031 6.578125 -9.40625 C 6.390625 -11.34375 6.34375 -14.128906 6.4375 -17.765625 C 6.53125 -21.410156 6.546875 -24.171875 6.484375 -26.046875 C 6.296875 -29.679688 5.640625 -33.378906 4.515625 -37.140625 C 3.390625 -40.910156 2.828125 -43.796875 2.828125 -45.796875 C 2.828125 -48.992188 3.8125 -51.800781 5.78125 -54.21875 C 7.757812 -56.632812 10.535156 -57.84375 14.109375 -57.84375 Z M 14.109375 -57.84375 "/></g></g></g><g fill="#121212" fill-opacity="1"><g transform="translate(688.309392, 78.836968)"><g><path d="M 12.609375 -57.5625 C 16.617188 -57.5625 19.59375 -56.242188 21.53125 -53.609375 C 23.101562 -51.472656 23.890625 -48.023438 23.890625 -43.265625 C 23.890625 -37.804688 23.421875 -33.382812 22.484375 -30 C 21.160156 -25.300781 18.179688 -22.953125 13.546875 -22.953125 C 9.398438 -22.953125 6.546875 -24.707031 4.984375 -28.21875 C 3.546875 -31.414062 2.828125 -35.832031 2.828125 -41.46875 C 2.828125 -45.425781 3.140625 -48.625 3.765625 -51.0625 C 4.890625 -55.394531 7.835938 -57.5625 12.609375 -57.5625 Z M 12.609375 -57.5625 "/></g></g></g><g fill="#121212" fill-opacity="1"><g transform="translate(732.420275, 78.836968)"><g><path d="M 31.21875 -58.03125 C 36.113281 -58.03125 40.378906 -57.507812 44.015625 -56.46875 C 47.648438 -55.4375 50.59375 -54.039062 52.84375 -52.28125 C 55.101562 -50.53125 56.921875 -48.304688 58.296875 -45.609375 C 59.679688 -42.910156 60.640625 -40.117188 61.171875 -37.234375 C 61.710938 -34.359375 61.984375 -31.066406 61.984375 -27.359375 C 61.984375 -23.660156 61.867188 -20.429688 61.640625 -17.671875 C 61.421875 -14.921875 60.953125 -11.976562 60.234375 -8.84375 C 59.515625 -5.707031 58.335938 -3.273438 56.703125 -1.546875 C 55.078125 0.171875 53.007812 1.03125 50.5 1.03125 C 47.363281 1.03125 44.945312 -0.03125 43.25 -2.15625 C 41.5625 -4.289062 40.71875 -7.238281 40.71875 -11 C 40.71875 -13.320312 41.078125 -15.957031 41.796875 -18.90625 C 42.523438 -21.851562 42.890625 -24.390625 42.890625 -26.515625 C 42.890625 -30.660156 41.695312 -33.765625 39.3125 -35.828125 C 36.925781 -37.898438 33.695312 -38.9375 29.625 -38.9375 C 27.300781 -38.9375 24.476562 -38.226562 21.15625 -36.8125 C 17.832031 -35.40625 15.109375 -34.703125 12.984375 -34.703125 C 10.222656 -34.703125 7.835938 -35.59375 5.828125 -37.375 C 3.828125 -39.164062 2.828125 -41.378906 2.828125 -44.015625 C 2.828125 -48.023438 4.675781 -51.347656 8.375 -53.984375 C 10.6875 -55.609375 13.660156 -56.6875 17.296875 -57.21875 C 20.941406 -57.757812 25.582031 -58.03125 31.21875 -58.03125 Z M 31.21875 -58.03125 "/></g></g></g><g fill="#121212" fill-opacity="1"><g transform="translate(814.621633, 78.836968)"><g><path d="M 14.578125 -27.46875 C 17.648438 -27.53125 19.90625 -26.710938 21.34375 -25.015625 C 22.789062 -23.328125 23.515625 -20.882812 23.515625 -17.6875 C 23.515625 -16.738281 23.4375 -15.414062 23.28125 -13.71875 C 23.125 -12.03125 23.046875 -10.65625 23.046875 -9.59375 C 23.046875 -5.207031 24.015625 0.367188 25.953125 7.140625 C 27.148438 11.347656 27.75 15.019531 27.75 18.15625 C 27.75 21.976562 26.664062 24.8125 24.5 26.65625 C 22.332031 28.507812 19.554688 29.4375 16.171875 29.4375 C 13.671875 29.4375 11.617188 28.835938 10.015625 27.640625 C 8.421875 26.453125 7.242188 24.664062 6.484375 22.28125 C 5.734375 19.90625 5.234375 17.507812 4.984375 15.09375 C 4.734375 12.675781 4.609375 9.679688 4.609375 6.109375 C 4.609375 -2.160156 5.015625 -9.523438 5.828125 -15.984375 C 6.203125 -19.117188 7.109375 -21.800781 8.546875 -24.03125 C 9.992188 -26.257812 12.003906 -27.40625 14.578125 -27.46875 Z M 2.828125 -43.921875 C 2.828125 -48.867188 5.019531 -52.628906 9.40625 -55.203125 C 13.476562 -57.648438 19.9375 -58.875 28.78125 -58.875 C 34.101562 -58.875 38.613281 -58.492188 42.3125 -57.734375 C 46.019531 -56.984375 49.566406 -55.515625 52.953125 -53.328125 C 60.160156 -48.617188 63.765625 -41.375 63.765625 -31.59375 C 63.765625 -29.03125 63.5 -26.367188 62.96875 -23.609375 C 62.4375 -20.847656 61.585938 -18.117188 60.421875 -15.421875 C 59.265625 -12.722656 57.835938 -10.304688 56.140625 -8.171875 C 54.453125 -6.046875 52.367188 -4.320312 49.890625 -3 C 47.410156 -1.6875 44.695312 -1.03125 41.75 -1.03125 C 38.8125 -1.03125 36.507812 -1.828125 34.84375 -3.421875 C 33.1875 -5.023438 32.359375 -7.175781 32.359375 -9.875 C 32.359375 -12.945312 33.859375 -15.613281 36.859375 -17.875 C 39.554688 -19.875 41.59375 -21.78125 42.96875 -23.59375 C 44.351562 -25.414062 45.046875 -27.613281 45.046875 -30.1875 C 45.046875 -33.257812 44.007812 -35.640625 41.9375 -37.328125 C 39.875 -39.023438 37.054688 -39.875 33.484375 -39.875 C 30.847656 -39.875 27.570312 -38.976562 23.65625 -37.1875 C 19.738281 -35.40625 16.554688 -34.515625 14.109375 -34.515625 C 10.785156 -34.515625 8.070312 -35.34375 5.96875 -37 C 3.875 -38.664062 2.828125 -40.972656 2.828125 -43.921875 Z M 2.828125 -43.921875 "/></g></g></g></g></g></svg>