<svg xmlns="http://www.w3.org/2000/svg" xmlns:xlink="http://www.w3.org/1999/xlink" width="1920" zoomAndPan="magnify" viewBox="0 0 1440 809.999993" height="1080" preserveAspectRatio="xMidYMid meet" version="1.0"><defs><clipPath id="2ba8bdb5fd"><path d="M 463.316406 136.851562 L 898.316406 136.851562 L 898.316406 571.851562 L 463.316406 571.851562 Z M 463.316406 136.851562 " clip-rule="nonzero"/></clipPath></defs><rect x="-144" width="1728" fill="#ffffff" y="-80.999999" height="971.999992" fill-opacity="1"/><rect x="-144" width="1728" fill="#000000" y="-80.999999" height="971.999992" fill-opacity="1"/><g clip-path="url(#2ba8bdb5fd)"><path fill="#ffffff" d="M 527.011719 200.546875 C 487.660156 239.894531 463.316406 294.25 463.316406 354.261719 C 463.316406 375.914062 466.460938 396.847656 472.390625 416.609375 C 478.5 437.003906 487.480469 456.140625 498.980469 473.660156 C 500.597656 476.085938 503.832031 476.714844 506.257812 475.1875 C 508.683594 473.570312 509.3125 470.335938 507.785156 467.910156 C 496.824219 451.289062 488.289062 433.050781 482.453125 413.554688 C 476.882812 394.78125 473.828125 374.835938 473.828125 354.261719 C 473.828125 297.125 497.003906 245.375 534.46875 208.003906 C 571.929688 170.539062 623.679688 147.359375 680.726562 147.359375 C 683.421875 147.359375 685.667969 147.359375 687.644531 147.449219 C 689.800781 147.539062 692.136719 147.628906 694.5625 147.808594 C 697.4375 147.988281 699.953125 145.835938 700.132812 142.871094 C 700.3125 139.996094 698.15625 137.480469 695.191406 137.300781 C 692.945312 137.121094 690.519531 137.03125 687.914062 136.941406 C 685.21875 136.941406 682.792969 136.851562 680.726562 136.851562 C 620.714844 136.851562 566.363281 161.195312 527.011719 200.546875 Z M 750.890625 144.667969 C 780.71875 182.308594 826.539062 228.128906 864.179688 257.953125 C 867.144531 249.058594 868.761719 239.535156 868.761719 229.65625 C 868.761719 203.242188 857.082031 178.265625 836.957031 161.195312 C 820.609375 147.449219 800.214844 140.085938 779.191406 140.085938 C 769.757812 140.085938 760.144531 141.613281 750.890625 144.667969 Z M 706.78125 177.007812 C 714.238281 166.765625 723.851562 158.140625 734.902344 151.851562 C 750.621094 171.976562 770.207031 194.078125 792.488281 216.359375 C 814.769531 238.636719 836.867188 258.222656 856.992188 273.945312 C 850.703125 284.996094 842.078125 294.609375 831.835938 302.066406 C 810.90625 285.625 788.355469 265.589844 765.804688 243.039062 C 743.257812 220.492188 723.222656 197.851562 706.78125 177.007812 Z M 621.253906 210.609375 L 627.09375 191.652344 L 632.933594 210.609375 L 651.890625 216.449219 L 632.933594 222.289062 L 627.09375 241.242188 L 621.253906 222.289062 L 602.296875 216.449219 Z M 689.621094 229.65625 C 689.621094 216.539062 692.40625 204.050781 697.527344 192.820312 C 715.226562 214.832031 734.632812 235.851562 753.765625 254.988281 C 772.992188 274.214844 794.015625 293.621094 815.9375 311.230469 C 804.707031 316.261719 792.21875 319.136719 779.101562 319.136719 C 729.691406 319.226562 689.621094 279.15625 689.621094 229.65625 Z M 544.710938 423.707031 L 675.605469 259.570312 C 685.847656 295.148438 713.789062 323.085938 749.273438 333.238281 L 585.136719 464.136719 C 574.984375 472.222656 561.691406 474.558594 551.089844 468.898438 C 550.460938 468.449219 549.921875 468 549.382812 467.640625 C 544.171875 477.34375 542.734375 487.496094 544.710938 497.015625 C 546.058594 503.664062 549.023438 509.953125 553.605469 515.523438 C 557.738281 520.644531 561.601562 523.519531 566.902344 527.023438 C 582.53125 537.355469 599.601562 545.621094 617.839844 551.371094 C 637.605469 557.660156 658.804688 561.074219 680.726562 561.074219 C 737.867188 561.074219 789.613281 537.894531 826.988281 500.429688 C 864.449219 462.96875 887.628906 411.21875 887.628906 354.171875 C 887.628906 343.210938 886.820312 332.429688 885.203125 322.097656 C 883.585938 311.410156 881.070312 301.078125 877.835938 290.925781 C 876.9375 288.140625 878.464844 285.265625 881.25 284.367188 C 884.035156 283.46875 886.910156 284.996094 887.808594 287.78125 C 891.222656 298.382812 893.828125 309.253906 895.535156 320.570312 C 897.242188 331.621094 898.140625 342.851562 898.140625 354.261719 C 898.140625 414.273438 873.792969 468.628906 834.441406 507.976562 C 795.09375 547.328125 740.742188 571.675781 680.726562 571.675781 C 657.726562 571.675781 635.539062 568.082031 614.605469 561.433594 C 595.558594 555.324219 577.589844 546.699219 561.242188 536.007812 C 554.414062 531.515625 550.28125 528.550781 544.890625 521.542969 C 539.589844 514.804688 536.085938 507.167969 534.378906 499.171875 C 531.863281 486.957031 533.839844 473.929688 540.578125 461.800781 L 541.476562 460.273438 C 541.027344 459.644531 540.667969 459.105469 540.398438 458.566406 C 534.199219 447.875 536.445312 434.128906 544.710938 423.707031 Z M 548.574219 287.511719 L 556.839844 260.558594 L 565.105469 287.511719 L 592.054688 295.777344 L 565.105469 304.042969 L 556.839844 330.992188 L 548.574219 304.042969 L 521.621094 295.777344 Z M 796.890625 383.730469 L 777.933594 389.570312 L 796.890625 395.410156 L 802.730469 414.363281 L 808.570312 395.410156 L 827.527344 389.570312 L 808.570312 383.730469 L 802.730469 364.773438 Z M 721.335938 451.289062 L 733.285156 412.476562 L 745.230469 451.289062 L 784.042969 463.238281 L 745.230469 475.1875 L 733.285156 513.996094 L 721.335938 475.1875 L 682.523438 463.148438 Z M 721.335938 451.289062 " fill-opacity="1" fill-rule="evenodd"/></g></svg>